<?xml version="1.0" standalone="no"?>
<!DOCTYPE svg PUBLIC "-//W3C//DTD SVG 20010904//EN"
 "http://www.w3.org/TR/2001/REC-SVG-20010904/DTD/svg10.dtd">
<svg version="1.0" xmlns="http://www.w3.org/2000/svg"
 width="480.000000pt" height="480.000000pt" viewBox="0 0 480.000000 480.000000"
 preserveAspectRatio="xMidYMid meet">
<metadata>
Created by potrace 1.14, written by Peter Selinger 2001-2017
</metadata>
<g transform="translate(0.000000,480.000000) scale(0.100000,-0.100000)"
fill="#000000" stroke="none">
<path d="M2214 3756 c-277 -53 -460 -177 -553 -376 -17 -36 -38 -93 -46 -128
-15 -58 -15 -65 -1 -87 9 -14 26 -27 39 -30 66 -15 365 -41 385 -34 23 9 27
17 57 104 25 71 94 136 169 159 116 37 255 7 309 -66 37 -51 48 -94 54 -214
l6 -110 -164 -18 c-449 -49 -634 -119 -785 -298 -94 -112 -139 -250 -138 -423
1 -181 49 -312 153 -415 111 -111 253 -156 455 -147 200 9 320 59 479 199 37
33 69 59 71 57 2 -2 26 -36 55 -76 58 -80 141 -160 176 -169 33 -8 51 4 216
148 122 107 149 135 149 157 0 16 -22 58 -55 105 -103 149 -98 116 -105 706
-6 495 -7 518 -28 581 -60 180 -201 300 -427 360 -102 27 -362 36 -471 15z
m413 -1223 c-3 -83 -13 -174 -22 -207 -42 -158 -149 -268 -273 -283 -155 -18
-262 106 -250 291 15 222 181 335 507 345 l44 1 -6 -147z"/>
</g>
</svg>
